<svg width="16" height="16" viewBox="0 0 18 16" fill="none" xmlns="http://www.w3.org/2000/svg">
<path d="M17.0524 6.04549C16.9424 5.70742 16.6426 5.46806 16.2892 5.43609L11.4695 4.99853L9.56477 0.539087C9.42414 0.211457 9.10415 0 8.74799 0C8.39182 0 8.07171 0.211457 7.93197 0.539087L6.0272 4.99853L1.20676 5.43609C0.853398 5.4687 0.554174 5.70805 0.443605 6.04549C0.333673 6.38357 0.435198 6.75438 0.702448 6.98877L4.34574 10.1834L3.27152 14.9147C3.19292 15.2626 3.32795 15.6223 3.6166 15.831C3.77175 15.9437 3.95404 16 4.13696 16C4.29415 16 4.45147 15.9582 4.59197 15.8741L8.74799 13.3891L12.9032 15.8741C13.2081 16.0563 13.5914 16.0396 13.8794 15.831C14.168 15.6223 14.3031 15.2626 14.2245 14.9147L13.1502 10.1834L16.7935 6.98877C17.0606 6.75438 17.1623 6.38433 17.0524 6.04549Z" fill="#FFCC01"/>
</svg>
