<svg width="17" height="16" viewBox="0 0 17 16" fill="none" xmlns="http://www.w3.org/2000/svg">
<path d="M16.8524 6.04549C16.7425 5.70742 16.4426 5.46806 16.0893 5.43609L11.2696 4.99853L9.36482 0.539087C9.22419 0.211457 8.9042 0 8.54804 0C8.19187 0 7.87176 0.211457 7.73202 0.539087L5.82725 4.99853L1.00681 5.43609C0.653446 5.4687 0.354223 5.70805 0.243654 6.04549C0.133722 6.38357 0.235246 6.75438 0.502497 6.98877L4.14579 10.1834L3.07157 14.9147C2.99297 15.2626 3.128 15.6223 3.41665 15.831C3.5718 15.9437 3.75409 16 3.93701 16C4.0942 16 4.25152 15.9582 4.39202 15.8741L8.54804 13.3891L12.7033 15.8741C13.0081 16.0563 13.3914 16.0396 13.6794 15.831C13.9681 15.6223 14.1031 15.2626 14.0245 14.9147L12.9503 10.1834L16.5936 6.98877C16.8607 6.75438 16.9624 6.38433 16.8524 6.04549Z" fill="#808080"/>
</svg>
